<?xml version="1.0" encoding="UTF-8"?>
<svg xmlns="http://www.w3.org/2000/svg" xmlns:xlink="http://www.w3.org/1999/xlink" width="375pt" height="374.999991pt" viewBox="0 0 375 374.999991" version="1.2">
<defs>
<clipPath id="clip1">
  <path d="M 5.546875 22 L 369.511719 22 L 369.511719 362.421875 L 5.546875 362.421875 Z M 5.546875 22 "/>
</clipPath>
<clipPath id="clip2">
  <path d="M 6 21.980469 L 369.511719 21.980469 L 369.511719 362.421875 L 6 362.421875 Z M 6 21.980469 "/>
</clipPath>
</defs>
<g id="surface1">
<path style=" stroke:none;fill-rule:nonzero;fill:rgb(15.689087%,17.248535%,20.388794%);fill-opacity:1;" d="M 216.839844 187.691406 C 216.980469 187.691406 216.980469 187.46875 216.839844 187.46875 C 216.699219 187.46875 216.699219 187.6875 216.839844 187.691406 "/>
<path style=" stroke:none;fill-rule:nonzero;fill:rgb(96.859741%,42.349243%,42.349243%);fill-opacity:1;" d="M 215.351562 120.082031 C 216.398438 118.972656 217.5 117.84375 218.6875 116.886719 C 220.023438 115.8125 217.984375 113.675781 216.777344 114.976562 C 215.15625 116.726562 213.613281 118.542969 212.035156 120.332031 L 214.230469 122.03125 C 215.050781 120.855469 216.066406 119.785156 216.804688 118.570312 C 217.632812 117.214844 215.824219 116.019531 214.722656 116.957031 C 213.5625 117.929688 212.660156 119.371094 211.8125 120.613281 C 210.925781 121.917969 212.972656 123.519531 214.015625 122.316406 C 215.574219 120.507812 217.167969 118.726562 218.6875 116.886719 L 216.566406 115.25 C 215.917969 116.625 215.074219 117.953125 214.246094 119.230469 C 213.8125 119.898438 214.804688 120.660156 215.351562 120.082031 "/>
<path style=" stroke:none;fill-rule:nonzero;fill:rgb(96.859741%,42.349243%,42.349243%);fill-opacity:1;" d="M 121.578125 103.082031 C 120.175781 106.207031 118.402344 108.304688 116.214844 110.910156 C 115.71875 111.496094 116.167969 112.65625 117.042969 112.332031 C 122.054688 110.507812 123.566406 104.0625 125.6875 99.730469 C 129.058594 92.847656 133.957031 87.054688 138.347656 80.832031 C 139.015625 79.882812 137.503906 78.714844 136.730469 79.585938 C 132.570312 84.304688 128.679688 89.492188 125.539062 94.941406 C 124.019531 97.574219 122.824219 100.3125 121.578125 103.082031 "/>
<path style=" stroke:none;fill-rule:nonzero;fill:rgb(96.859741%,42.349243%,42.349243%);fill-opacity:1;" d="M 154.445312 78.519531 C 154.378906 78.007812 153.519531 78.023438 153.429688 78.515625 C 152.378906 84.496094 147.75 88.761719 145.21875 94.132812 C 144.171875 96.351562 143.277344 98.625 142.40625 100.917969 C 141.371094 103.65625 139.863281 110.933594 136.46875 111.433594 C 135.265625 111.609375 135.449219 113.386719 136.464844 113.683594 C 139.765625 114.652344 141.816406 111.101562 143.199219 107.183594 C 143.484375 107.019531 143.738281 106.761719 143.886719 106.335938 C 144.027344 105.941406 144.1875 105.546875 144.328125 105.152344 C 144.433594 105.121094 144.542969 105.082031 144.625 104.988281 C 145.886719 103.597656 146.589844 101.691406 147.238281 99.949219 C 147.816406 98.398438 148.222656 96.980469 148.121094 95.410156 C 148.828125 93.886719 149.515625 92.34375 149.714844 90.699219 C 149.722656 90.609375 149.699219 90.53125 149.65625 90.472656 C 150.378906 89.25 151.128906 88.027344 151.929688 86.773438 C 153.625 84.125 154.875 81.691406 154.445312 78.519531 "/>
<path style=" stroke:none;fill-rule:nonzero;fill:rgb(96.859741%,42.349243%,42.349243%);fill-opacity:1;" d="M 57.277344 209.460938 C 57.042969 209.617188 56.847656 209.886719 56.710938 210.140625 C 55.726562 211.984375 55.585938 214.222656 56.136719 216.238281 C 56.691406 218.253906 57.902344 220.054688 59.421875 221.492188 C 59.960938 222.007812 60.722656 222.503906 61.398438 222.191406 C 61.753906 222.019531 61.984375 221.652344 62.316406 221.433594 C 62.761719 221.136719 63.34375 221.144531 63.878906 221.160156 C 66.289062 221.242188 68.703125 221.269531 71.109375 221.511719 C 73.59375 221.757812 76.378906 222.890625 78.820312 222.894531 C 83.996094 224.300781 88.941406 226.414062 94.035156 228.0625 C 93.835938 229.601562 96.289062 230.433594 97.140625 228.964844 C 97.304688 228.683594 102.0625 221.308594 99.273438 222.078125 C 98.097656 222.40625 97.128906 223.433594 96.332031 224.308594 C 96.308594 224.335938 96.285156 224.367188 96.257812 224.394531 C 90.714844 222.078125 84.925781 220.476562 78.953125 219.660156 C 75.761719 219.226562 72.1875 218.796875 68.652344 218.785156 C 66.144531 218.777344 62.066406 220.300781 60.042969 218.214844 C 58.507812 216.632812 58.117188 213.3125 58.449219 211.234375 C 58.566406 210.488281 58.566406 209.414062 57.816406 209.3125 C 57.617188 209.285156 57.4375 209.347656 57.277344 209.460938 "/>
<path style=" stroke:none;fill-rule:nonzero;fill:rgb(96.859741%,42.349243%,42.349243%);fill-opacity:1;" d="M 64.097656 202.027344 C 64.730469 202.167969 65.371094 202.28125 66.003906 202.40625 C 66.386719 202.808594 66.929688 202.859375 67.367188 202.675781 C 69.445312 203.046875 71.527344 203.351562 73.605469 203.648438 C 73.617188 203.710938 73.621094 203.777344 73.683594 203.8125 C 76.214844 205.074219 79.042969 205.34375 81.746094 206.113281 C 84.949219 207.027344 88.050781 208.328125 91.261719 209.179688 C 92.402344 209.484375 93.3125 208.75 93.625 207.832031 C 98.027344 209.527344 103.507812 211.644531 106.105469 207.289062 C 107.042969 205.71875 104.773438 204.523438 103.726562 205.894531 C 101.765625 208.46875 94.402344 204.863281 92.023438 204.183594 C 88.691406 203.238281 85.308594 202.449219 81.902344 201.8125 C 77.246094 200.941406 72.371094 200.136719 67.589844 200.261719 C 66.253906 197.046875 67.183594 194.394531 68.128906 191.085938 C 68.3125 190.449219 67.5 190.003906 67.035156 190.449219 C 64.53125 192.835938 64.328125 197.078125 65.210938 200.410156 C 64.835938 200.445312 64.464844 200.464844 64.097656 200.519531 C 63.324219 200.621094 63.382812 201.875 64.097656 202.027344 "/>
<path style=" stroke:none;fill-rule:nonzero;fill:rgb(96.859741%,42.349243%,42.349243%);fill-opacity:1;" d="M 111.246094 189.335938 C 107.613281 189.847656 103.46875 188.28125 99.902344 187.582031 C 96.902344 186.992188 93.886719 186.484375 90.855469 186.097656 C 85.5 185.410156 79.699219 184.742188 74.398438 186.054688 C 73.574219 186.261719 73.851562 187.339844 74.585938 187.433594 C 81.625 188.300781 88.640625 188.105469 95.691406 189.339844 C 100.75 190.230469 106.785156 192.9375 111.878906 191.632812 C 113.410156 191.242188 112.722656 189.128906 111.246094 189.335938 "/>
<path style=" stroke:none;fill-rule:nonzero;fill:rgb(96.859741%,42.349243%,42.349243%);fill-opacity:1;" d="M 97.644531 235.25 C 97.085938 235.464844 96.9375 236.378906 97.644531 236.535156 C 99.457031 236.929688 101.660156 237.253906 103.496094 236.792969 C 105.070312 236.390625 104.597656 234.242188 103.132812 234.109375 C 101.359375 233.949219 99.269531 234.621094 97.644531 235.25 "/>
<path style=" stroke:none;fill-rule:nonzero;fill:rgb(96.859741%,42.349243%,42.349243%);fill-opacity:1;" d="M 109.460938 214.800781 C 108.179688 214.640625 106.175781 215.113281 105.3125 216.132812 C 105.039062 216.457031 105.015625 217.03125 105.457031 217.25 C 106.113281 217.574219 106.765625 217.601562 107.488281 217.636719 C 108.28125 217.675781 109.042969 217.710938 109.832031 217.578125 C 110.515625 217.460938 110.941406 216.664062 110.851562 216.03125 C 110.734375 215.28125 110.183594 214.894531 109.460938 214.800781 "/>
<path style=" stroke:none;fill-rule:nonzero;fill:rgb(96.859741%,42.349243%,42.349243%);fill-opacity:1;" d="M 112.230469 200.1875 C 112.738281 200.261719 113.285156 200.414062 113.792969 200.363281 C 115.578125 200.1875 115.582031 197.765625 113.792969 197.585938 C 113.289062 197.535156 112.730469 197.6875 112.230469 197.765625 C 111.753906 197.832031 111.351562 197.949219 110.898438 198.117188 C 110.054688 198.429688 110.054688 199.515625 110.894531 199.828125 C 111.351562 200.003906 111.746094 200.113281 112.230469 200.1875 "/>
<path style=" stroke:none;fill-rule:nonzero;fill:rgb(96.859741%,42.349243%,42.349243%);fill-opacity:1;" d="M 120.589844 187.039062 C 120.628906 187.054688 120.664062 187.074219 120.699219 187.082031 C 120.703125 187.246094 121.289062 187.441406 121.394531 187.46875 C 122.328125 187.722656 123.171875 186.855469 122.933594 185.933594 C 122.703125 185.019531 121.710938 184.65625 120.851562 184.859375 C 120.113281 185.035156 119.757812 185.648438 119.710938 186.34375 C 119.675781 186.804688 120.140625 187.089844 120.546875 187.035156 L 120.589844 187.039062 "/>
<path style=" stroke:none;fill-rule:nonzero;fill:rgb(96.859741%,42.349243%,42.349243%);fill-opacity:1;" d="M 187.597656 227.941406 C 187.09375 228.558594 186.613281 229.1875 186.105469 229.78125 C 185.582031 230.394531 185.183594 231.070312 184.691406 231.703125 C 184.121094 232.441406 185.054688 233.339844 185.8125 233.160156 C 186.65625 232.964844 187.433594 232.753906 188.167969 232.28125 C 188.9375 231.785156 189.609375 231.246094 190.203125 230.554688 C 190.851562 229.800781 190.949219 228.6875 190.203125 227.949219 C 189.554688 227.296875 188.230469 227.167969 187.597656 227.941406 "/>
<path style=" stroke:none;fill-rule:nonzero;fill:rgb(96.859741%,42.349243%,42.349243%);fill-opacity:1;" d="M 212.5 237.917969 C 211.578125 238.277344 210.960938 238.871094 210.246094 239.53125 C 209.925781 239.824219 209.609375 240.109375 209.347656 240.457031 C 209.058594 240.839844 208.878906 241.316406 208.472656 241.605469 C 207.746094 242.113281 208.402344 243.300781 209.179688 242.816406 C 209.617188 242.542969 210.03125 242.5625 210.511719 242.457031 C 210.9375 242.359375 211.339844 242.167969 211.734375 241.988281 C 212.566406 241.617188 213.433594 241.308594 214.082031 240.640625 C 215.132812 239.558594 214.089844 237.292969 212.5 237.917969 "/>
<path style=" stroke:none;fill-rule:nonzero;fill:rgb(96.859741%,42.349243%,42.349243%);fill-opacity:1;" d="M 228.382812 253.023438 C 229.019531 252.871094 229.613281 252.566406 230.183594 252.257812 C 231.613281 251.5 232.683594 250.480469 232.4375 248.746094 C 232.359375 248.207031 231.753906 247.640625 231.226562 247.539062 C 229.683594 247.25 228.773438 248.144531 227.816406 249.1875 C 227.433594 249.605469 227.046875 249.992188 226.703125 250.441406 C 226.316406 250.949219 226.195312 251.367188 226.007812 251.964844 C 225.878906 252.355469 226.152344 252.832031 226.554688 252.925781 C 227.226562 253.085938 227.679688 253.179688 228.382812 253.023438 "/>
<path style=" stroke:none;fill-rule:nonzero;fill:rgb(96.859741%,42.349243%,42.349243%);fill-opacity:1;" d="M 246.761719 261.792969 C 246.722656 261.925781 246.773438 262.09375 246.941406 262.148438 C 247.273438 262.257812 247.605469 262.386719 247.949219 262.449219 C 248.097656 262.480469 248.21875 262.367188 248.257812 262.242188 C 248.464844 262.222656 248.671875 262.160156 248.792969 262.066406 C 249.554688 261.488281 250.269531 260.886719 250.976562 260.242188 C 251.171875 259.835938 251.359375 259.429688 251.542969 259.015625 C 251.394531 258.285156 250.554688 257.671875 249.773438 258.15625 C 248.964844 258.660156 248.195312 259.171875 247.4375 259.753906 C 247.089844 260.011719 246.703125 260.414062 246.773438 260.90625 C 246.78125 260.964844 246.785156 261.027344 246.796875 261.085938 C 246.625 261.308594 246.636719 261.574219 246.761719 261.792969 "/>
<path style=" stroke:none;fill-rule:nonzero;fill:rgb(96.859741%,42.349243%,42.349243%);fill-opacity:1;" d="M 255.066406 174.082031 C 254.519531 173.691406 253.980469 173.347656 253.328125 173.183594 C 252.570312 172.988281 251.824219 173.6875 252.046875 174.460938 C 252.230469 175.109375 252.574219 175.625 252.980469 176.160156 C 253.46875 176.804688 253.898438 177.441406 254.566406 177.917969 C 255.136719 178.328125 256.121094 178.164062 256.589844 177.65625 C 257.050781 177.152344 257.3125 176.230469 256.851562 175.632812 C 256.351562 174.980469 255.730469 174.550781 255.066406 174.082031 "/>
<path style=" stroke:none;fill-rule:nonzero;fill:rgb(96.859741%,42.349243%,42.349243%);fill-opacity:1;" d="M 261.023438 150.847656 C 260.464844 150.425781 259.652344 149.859375 258.914062 149.953125 L 258.832031 149.941406 C 258.289062 149.894531 257.964844 150.40625 257.96875 150.878906 C 257.828125 151.691406 258.742188 152.644531 259.226562 153.160156 C 259.835938 153.808594 260.917969 153.6875 261.433594 153.015625 C 262.019531 152.257812 261.726562 151.382812 261.023438 150.847656 "/>
<path style=" stroke:none;fill-rule:nonzero;fill:rgb(96.859741%,42.349243%,42.349243%);fill-opacity:1;" d="M 264.867188 129.601562 L 264.816406 129.941406 C 264.816406 130.125 264.859375 130.390625 264.894531 130.554688 C 264.953125 130.898438 265.070312 131.230469 265.257812 131.527344 C 265.628906 132.125 266.167969 132.65625 266.804688 132.960938 C 267.652344 133.371094 268.65625 133.132812 269.042969 132.210938 C 269.445312 131.265625 268.898438 130.441406 268.027344 130.074219 C 268.167969 130.132812 268.152344 130.152344 268.027344 130.074219 C 267.949219 130.03125 267.871094 129.980469 267.792969 129.929688 L 267.757812 129.90625 C 267.683594 129.832031 267.609375 129.761719 267.535156 129.683594 C 267.480469 129.621094 267.28125 129.414062 267.246094 129.378906 C 267.210938 129.324219 267.089844 129.171875 267.089844 129.171875 C 267.054688 129.121094 266.636719 128.726562 266.804688 128.902344 C 266.195312 128.277344 265.230469 128.625 264.96875 129.382812 C 265.03125 129.195312 264.996094 129.269531 264.867188 129.601562 "/>
<path style=" stroke:none;fill-rule:nonzero;fill:rgb(96.859741%,42.349243%,42.349243%);fill-opacity:1;" d="M 276.578125 119.820312 C 277.023438 119.46875 277.238281 118.890625 277.085938 118.335938 C 276.824219 117.34375 275.890625 116.605469 275.109375 116 C 274.746094 115.71875 274.300781 115.59375 273.875 115.839844 C 273.488281 116.070312 273.289062 116.550781 273.410156 116.988281 C 273.53125 117.445312 273.6875 117.878906 273.867188 118.3125 C 274.144531 119.003906 274.410156 119.46875 275.007812 119.925781 C 275.445312 120.265625 276.191406 120.128906 276.578125 119.820312 "/>
<path style=" stroke:none;fill-rule:nonzero;fill:rgb(96.859741%,42.349243%,42.349243%);fill-opacity:1;" d="M 314.558594 144.160156 C 316.914062 142.476562 316.671875 139.449219 316.234375 136.941406 C 315.839844 134.644531 312.519531 135.378906 312.382812 137.457031 C 312.480469 138.300781 312.410156 139.066406 312.21875 139.777344 C 310.964844 141.613281 305.988281 139.324219 304.09375 138.625 C 301.132812 137.535156 298.1875 136.390625 295.265625 135.1875 C 290.109375 133.0625 284.695312 129.628906 279.078125 129.097656 C 278.320312 129.027344 278.039062 130.03125 278.488281 130.515625 C 281.667969 133.917969 286.40625 135.542969 290.609375 137.363281 C 295.242188 139.363281 299.929688 141.230469 304.671875 142.960938 C 305.679688 143.324219 306.851562 143.839844 308.070312 144.265625 C 307.585938 145.308594 308.132812 146.773438 309.59375 146.773438 C 311.921875 146.769531 313.449219 145.742188 314.453125 144.222656 C 314.488281 144.199219 314.527344 144.183594 314.558594 144.160156 "/>
<g clip-path="url(#clip1)" clip-rule="nonzero">
<path style=" stroke:none;fill-rule:nonzero;fill:rgb(96.859741%,42.349243%,42.349243%);fill-opacity:1;" d="M 260.128906 271.226562 C 256.023438 278.75 251.136719 285.765625 245.390625 292.085938 C 245.34375 292.042969 245.300781 291.996094 245.253906 291.953125 C 249.625 286.378906 253.785156 280.632812 257.6875 274.710938 C 258.714844 273.15625 259.753906 271.574219 260.789062 269.972656 C 260.570312 270.390625 260.355469 270.8125 260.128906 271.226562 Z M 288.332031 321.351562 C 292.089844 323.175781 295.644531 325.386719 299.152344 327.671875 C 298.945312 327.585938 298.726562 327.5 298.523438 327.410156 C 291.257812 324.355469 283.832031 321.613281 276.933594 317.757812 C 276.140625 317.304688 275.363281 316.808594 274.574219 316.335938 C 279.214844 317.867188 283.914062 319.214844 288.332031 321.351562 Z M 229.382812 297.859375 C 227.257812 299.195312 224.917969 297.285156 224.984375 294.988281 C 225.121094 290.3125 227.820312 284.511719 229.585938 280.222656 C 230.851562 277.144531 232.726562 273.699219 232.066406 270.28125 C 232.269531 269.90625 232.4375 269.523438 232.585938 269.136719 C 233.402344 267.832031 233.996094 266.4375 234.164062 264.882812 C 234.308594 263.582031 232.890625 262.890625 231.769531 263.328125 C 230.558594 263.8125 229.464844 264.503906 228.398438 265.128906 C 225.738281 266.671875 221.976562 272.636719 217.363281 279.441406 C 214.960938 282.984375 212.355469 287.257812 209.136719 290.089844 C 207.777344 291.285156 205.445312 291.828125 203.589844 291.59375 C 201.945312 291.390625 200.363281 289.496094 200.207031 287.925781 C 200.109375 286.972656 200.402344 286.023438 200.714844 285.121094 C 203.726562 276.496094 209.070312 268.769531 211.523438 259.964844 C 212.21875 257.457031 212.515625 254.359375 210.5625 252.628906 C 209.71875 251.878906 208.121094 251.695312 207.644531 252.726562 C 207.449219 253.148438 207.515625 253.640625 207.542969 254.105469 C 207.746094 257.808594 205.183594 260.996094 203.320312 264.199219 C 201.425781 267.457031 200.175781 271.042969 198.550781 274.441406 C 196.925781 277.839844 194.839844 281.152344 191.734375 283.289062 C 188.632812 285.429688 184.335938 286.164062 181.0625 284.296875 C 175.738281 281.273438 177.882812 275.089844 179.53125 270.578125 C 180.304688 268.453125 181.285156 266.425781 182.261719 264.398438 C 186.515625 257.945312 190.132812 251.84375 191.027344 244.328125 C 191.292969 242.054688 188.792969 241.472656 188.148438 243.660156 C 186.804688 248.257812 185.679688 251.582031 183.300781 255.679688 C 180.730469 260.121094 178.335938 264.707031 175.003906 268.644531 C 173.296875 270.660156 169.976562 274.046875 166.953125 275.265625 C 164.441406 276.277344 162.503906 274.707031 161.523438 272.457031 C 160.226562 269.496094 161.207031 267.324219 162.316406 264.5 C 165.324219 256.835938 167.929688 249.019531 170.839844 241.316406 C 172.90625 235.839844 175.15625 230.421875 177.921875 225.261719 C 178.5 224.191406 179.140625 223.152344 179.796875 222.117188 C 180.902344 221.019531 182.023438 219.945312 183.144531 218.929688 C 186.851562 215.585938 191.050781 214.25 195.097656 211.617188 C 196.398438 210.769531 195.546875 208.917969 194.070312 209.183594 C 190.820312 209.773438 188.015625 211.121094 185.535156 212.9375 C 185.941406 212.195312 186.371094 211.472656 186.714844 210.707031 C 186.910156 210.277344 186.492188 209.730469 186.023438 210.015625 C 184.773438 210.765625 183.617188 211.6875 182.535156 212.707031 C 182.433594 212.296875 182.15625 211.921875 181.632812 211.6875 C 172.996094 207.867188 165.808594 203.738281 158.089844 198.113281 C 156.378906 196.859375 153.550781 196.417969 151.917969 194.980469 L 154.746094 193.964844 C 155.171875 193.867188 155.511719 193.785156 155.78125 193.710938 C 156.058594 193.824219 156.34375 193.894531 156.621094 193.914062 L 157.007812 193.945312 C 157.792969 193.996094 158.679688 193.460938 159.042969 192.773438 L 159.195312 192.492188 C 159.800781 191.351562 159.480469 189.949219 158.351562 189.265625 C 158.066406 189.089844 157.777344 188.96875 157.480469 188.878906 C 157.722656 188.480469 157.960938 188.070312 158.191406 187.648438 C 158.238281 187.5625 158.246094 187.480469 158.28125 187.398438 C 160.015625 186.546875 161.855469 185.859375 163.367188 185.167969 C 167.039062 183.480469 170.78125 181.953125 174.367188 180.085938 C 177.34375 178.535156 180.457031 176.683594 183.199219 174.449219 C 184.484375 173.980469 185.765625 173.484375 187.019531 172.941406 C 187.933594 172.539062 187.21875 171.328125 186.386719 171.453125 C 187.421875 170.304688 188.339844 169.078125 189.085938 167.75 C 189.210938 167.527344 189.261719 167.300781 189.257812 167.078125 C 189.667969 167.085938 190.058594 167 190.425781 166.851562 C 191.355469 167.101562 192.371094 166.902344 193.097656 166.226562 C 193.804688 165.578125 194.167969 164.640625 194.144531 163.691406 C 194.328125 163.773438 194.507812 163.84375 194.6875 163.933594 C 195.660156 164.417969 196.574219 164.035156 197.101562 163.367188 C 197.421875 164.394531 198.003906 165.074219 198.738281 165.644531 C 198.722656 166.101562 198.703125 166.554688 198.699219 167.007812 C 198.542969 168.929688 201.007812 169.355469 202.046875 168.214844 C 203.160156 169.488281 204.054688 171.050781 205.273438 172.203125 C 206.945312 173.777344 208.902344 175.28125 211.023438 176.175781 C 211.695312 176.460938 212.0625 176.363281 212.277344 176.109375 C 214.328125 178.242188 216.507812 180.179688 219 181.746094 C 218.816406 181.8125 218.636719 181.921875 218.457031 182.085938 C 215.488281 184.824219 213.238281 188.234375 210.175781 190.941406 C 206.875 193.863281 202.277344 195.46875 198.355469 197.472656 C 192.574219 200.433594 184.457031 203.632812 181.441406 209.957031 C 180.972656 210.945312 181.929688 211.984375 182.941406 211.460938 C 186.40625 209.671875 189.421875 207.113281 192.957031 205.355469 C 196.785156 203.453125 200.757812 201.867188 204.441406 199.679688 C 207.703125 197.734375 211.347656 195.1875 214.460938 192.214844 C 216.960938 196.050781 221.597656 198.558594 225.507812 200.734375 C 230.109375 203.296875 235.03125 205.355469 240.015625 207.0625 C 240.902344 207.359375 241.800781 207.652344 242.703125 207.9375 C 247.605469 210.625 253.414062 210.957031 257.699219 215.019531 C 258.800781 216.0625 259.746094 217.222656 260.582031 218.457031 C 262.199219 221.746094 262.984375 225.378906 263.195312 229.097656 C 263.722656 238.308594 260.601562 246.785156 258.648438 255.570312 C 258.570312 255.679688 258.492188 255.796875 258.414062 255.910156 C 256.742188 261.308594 254.152344 266.480469 251.109375 271.542969 C 245.148438 281.441406 239.347656 291.582031 229.382812 297.859375 Z M 169.351562 212.988281 C 161.730469 219.089844 156.820312 230.3125 153.882812 238.921875 C 152.046875 244.304688 150.835938 249.875 150.210938 255.527344 C 149.964844 257.792969 149.84375 260.066406 149.683594 262.34375 C 149.339844 267.089844 147.359375 265.957031 143.046875 266.316406 C 143.332031 265.089844 143.511719 263.832031 143.378906 262.617188 C 143.355469 262.398438 143.105469 262.261719 142.929688 262.429688 C 142.882812 262.480469 142.835938 262.53125 142.789062 262.582031 C 143.023438 260.8125 143.152344 259.023438 143.402344 257.328125 C 143.957031 253.660156 144.71875 250.019531 145.570312 246.40625 C 146.9375 240.621094 148.203125 234.535156 150.144531 228.789062 C 151.453125 225.582031 152.953125 222.464844 154.703125 219.472656 C 156.1875 216.929688 158.078125 214.585938 159.851562 212.195312 C 161.320312 210.824219 162.925781 209.515625 163.90625 207.863281 C 165.664062 209.003906 167.46875 210.0625 169.34375 211.019531 C 169.472656 211.644531 169.46875 212.308594 169.351562 212.988281 Z M 180.875 162.816406 C 180.890625 162.25 180.914062 161.6875 180.914062 161.121094 C 181.144531 161.210938 181.382812 161.253906 181.613281 161.324219 C 182.523438 162.296875 183.679688 162.949219 184.890625 163.527344 C 184.929688 163.597656 184.949219 163.671875 184.988281 163.742188 C 185.429688 164.574219 186.070312 165.441406 186.851562 166.089844 L 186.796875 166.144531 C 185.96875 165.417969 184.964844 164.847656 183.992188 164.335938 C 183.007812 163.8125 181.957031 163.246094 180.875 162.816406 Z M 177.351562 157.160156 C 177.449219 157.621094 177.769531 157.828125 178.121094 157.851562 C 178.207031 159.339844 178.378906 160.800781 178.59375 162.238281 C 178.386719 162.21875 178.179688 162.15625 177.972656 162.15625 C 177.871094 162.148438 177.777344 162.183594 177.695312 162.226562 C 175.894531 157.785156 174.664062 153.550781 174.664062 148.492188 C 174.671875 143.253906 175.570312 138.035156 176.847656 132.972656 C 177.992188 128.445312 179.53125 124.042969 181.402344 119.765625 C 181.15625 120.957031 181.078125 122.136719 181.207031 123.292969 C 181.019531 123.214844 180.742188 123.296875 180.65625 123.519531 C 176.84375 133.335938 175.183594 146.804688 177.351562 157.160156 Z M 181.734375 149.085938 C 183.273438 149.171875 184.589844 149.960938 185.097656 151.648438 C 185.625 153.398438 184.941406 154.929688 184.753906 156.585938 C 183.734375 156.554688 182.5625 156.542969 181.539062 156.777344 C 181.652344 154.210938 181.6875 151.648438 181.734375 149.085938 Z M 182.332031 138.078125 C 183.171875 130.839844 184.75 123.707031 186.410156 116.625 C 186.523438 116.15625 186.136719 115.898438 185.785156 115.953125 C 185.90625 115.710938 186.027344 115.46875 186.164062 115.238281 C 187.828125 112.378906 189.953125 109.9375 192.457031 107.8125 C 194.976562 108.699219 196.582031 110.691406 198.78125 112.125 C 200.695312 113.371094 202.816406 114.085938 205.058594 114.496094 C 205.566406 114.59375 207.257812 114.667969 209.285156 114.734375 C 202.125 118.28125 196.902344 126.238281 193.988281 133.402344 C 192.015625 138.257812 190.824219 143.40625 189.734375 148.515625 C 189.183594 151.09375 188.394531 153.945312 188.089844 156.765625 C 187.867188 156.738281 187.644531 156.738281 187.421875 156.71875 C 188.390625 154.371094 188.015625 151.15625 186.511719 149.308594 C 185.4375 147.988281 183.507812 146.992188 181.773438 147.226562 C 181.847656 144.179688 181.972656 141.132812 182.332031 138.078125 Z M 215.925781 114.902344 C 212.761719 116.726562 210.273438 119.722656 208.253906 123.078125 C 207.738281 123.007812 207.1875 123.117188 206.785156 123.496094 C 202.429688 127.550781 199.957031 134.539062 198.261719 140.128906 C 196.46875 146.078125 195.6875 152.238281 195.78125 158.4375 C 195.683594 158.386719 195.582031 158.339844 195.46875 158.304688 C 194.246094 157.933594 192.992188 157.625 191.722656 157.359375 C 192.019531 150.0625 193.957031 142.335938 196.078125 135.6875 C 198.867188 126.949219 203.195312 120.71875 210.035156 114.753906 C 212.015625 114.816406 214.199219 114.859375 215.925781 114.902344 Z M 217.144531 115.5 C 217.230469 115.28125 217.175781 115.082031 217.046875 114.933594 C 218.242188 114.964844 219.03125 114.996094 219.042969 115.027344 C 219.089844 115.183594 219.160156 115.320312 219.234375 115.449219 C 218.132812 116.234375 217.058594 117.046875 216.019531 117.894531 C 216.433594 117.117188 216.820312 116.320312 217.144531 115.5 Z M 114.714844 272.433594 C 114.832031 270.222656 114.695312 268.015625 114.304688 265.855469 C 115.050781 266 115.808594 265.878906 116.46875 265.558594 C 116.199219 267.78125 115.472656 270.171875 114.714844 272.433594 Z M 106.894531 109.058594 C 108.523438 105.554688 110.238281 102.164062 112.03125 98.816406 C 110.773438 101.390625 109.75 104.105469 108.925781 106.898438 C 107.746094 108.507812 106.824219 110.402344 106.097656 112.453125 C 106.367188 111.320312 106.636719 110.191406 106.894531 109.058594 Z M 323.261719 113.148438 C 324.539062 110.644531 325.730469 107.925781 326.664062 105.3125 C 328.144531 101.175781 330.804688 97.882812 333.796875 94.757812 C 328.339844 103.40625 325.386719 119.539062 316.265625 122.367188 C 319.4375 119.800781 321.496094 116.609375 323.261719 113.148438 Z M 367.578125 258.273438 C 365.890625 258.496094 364.210938 258.617188 362.539062 258.664062 C 359.449219 258.175781 356.375 257.695312 353.371094 257.117188 C 333.9375 253.363281 314.667969 247.335938 295.085938 243.78125 C 294.695312 243.714844 294.332031 243.761719 294.019531 243.890625 C 287.03125 242.007812 280.007812 239.953125 272.929688 238.8125 C 271.441406 238.574219 270.894531 240.515625 272.304688 241.066406 C 272.371094 241.089844 272.445312 241.113281 272.511719 241.140625 C 272 241.136719 271.480469 241.136719 270.96875 241.15625 C 270.632812 241.171875 270.445312 241.667969 270.789062 241.828125 C 271.238281 242.046875 271.695312 242.253906 272.152344 242.453125 C 272.039062 242.53125 271.9375 242.625 271.84375 242.753906 C 271.664062 243.003906 271.5 243.265625 271.324219 243.519531 C 270.640625 243.742188 269.992188 244.0625 269.398438 244.53125 C 269.128906 244.746094 269.277344 245.117188 269.496094 245.285156 C 269.636719 245.386719 269.78125 245.488281 269.925781 245.574219 C 264.34375 254.03125 259.851562 263.285156 254.28125 271.761719 C 250.238281 277.925781 245.914062 283.886719 241.347656 289.664062 C 241.246094 289.679688 241.148438 289.714844 241.054688 289.742188 C 241.308594 289.316406 241.554688 288.882812 241.800781 288.453125 C 242.792969 287.210938 243.664062 286.003906 244.382812 284.933594 C 245.765625 282.851562 246.992188 280.683594 248.175781 278.480469 C 249.84375 276.230469 251.578125 274.019531 253.226562 271.738281 C 259.917969 262.484375 264.25 252.21875 268.136719 241.558594 C 271.363281 232.6875 272.402344 222.945312 274.109375 213.699219 C 274.351562 212.382812 274.484375 210.769531 273.410156 209.972656 C 272.929688 209.609375 272.292969 209.511719 271.695312 209.429688 C 258.316406 207.609375 244.59375 205.785156 232.675781 199.453125 C 227.230469 196.566406 222.308594 192.804688 217.417969 189.0625 C 218.03125 187.179688 220.550781 186.894531 222.527344 187.070312 C 231.78125 187.890625 240.597656 191.210938 249.238281 194.613281 C 255.960938 197.25 262.660156 199.964844 269.363281 202.671875 C 270.257812 203.035156 271.171875 203.433594 271.929688 204.015625 C 266.203125 204.175781 260.539062 203.613281 254.882812 202.28125 C 248.207031 200.703125 241.960938 196.871094 235.210938 195.8125 C 234.90625 195.761719 234.703125 196.152344 234.988281 196.332031 C 241.152344 200.207031 249.234375 202 256.148438 204.117188 C 261.746094 205.824219 267.503906 206.796875 273.316406 206.523438 C 273.34375 207.371094 273.058594 208.191406 272.316406 208.574219 C 273.265625 208.101562 273.964844 209.140625 274.785156 207.894531 C 275.03125 207.914062 275.285156 207.886719 275.496094 207.757812 C 276.117188 207.375 276.40625 206.84375 276.578125 206.25 C 276.664062 206.238281 276.746094 206.234375 276.828125 206.226562 C 278.046875 206.0625 277.957031 204.191406 276.96875 203.820312 C 277.085938 202.808594 277.144531 201.800781 277.175781 200.769531 C 277.191406 200.109375 276.3125 199.8125 275.902344 200.273438 C 275.859375 200.015625 275.789062 199.761719 275.664062 199.5 C 275.550781 199.265625 275.21875 199.140625 274.976562 199.21875 C 274.359375 199.417969 273.925781 199.800781 273.527344 200.238281 C 273.378906 199.5625 272.671875 199.097656 272.070312 199.28125 C 266.371094 195.632812 260.277344 192.644531 253.871094 190.449219 C 255.628906 190.820312 257.371094 191.25 259.085938 191.78125 C 263.609375 193.175781 267.832031 195.351562 272.289062 196.914062 C 277.226562 198.640625 285.886719 200.9375 288.394531 194.476562 C 289.246094 192.285156 285.964844 191.207031 284.785156 192.957031 C 280.984375 198.574219 266.414062 190.101562 261.695312 188.636719 C 254.464844 186.382812 246.859375 185.902344 239.410156 184.769531 C 231.769531 183.597656 223.808594 181.761719 217.703125 176.746094 C 217.421875 176.519531 217.15625 176.261719 216.882812 176.015625 C 213.09375 172.554688 208.273438 171.542969 205.152344 167.164062 C 198.75 158.167969 200.046875 146.699219 203.894531 136.949219 C 208.289062 125.824219 216.703125 117.480469 227.925781 113.324219 C 227.988281 113.296875 228.054688 113.292969 228.117188 113.273438 C 229.203125 112.652344 230.3125 112.066406 231.445312 111.566406 C 238.394531 108.492188 245.671875 106.75 253.203125 105.988281 C 252.960938 107.722656 252.851562 109.433594 252.855469 111.121094 C 252.011719 110.953125 251.175781 110.792969 250.3125 110.585938 C 249.597656 110.410156 249.042969 110.894531 248.863281 111.40625 C 248.789062 111.589844 248.804688 111.800781 248.863281 111.996094 C 248.871094 112.042969 248.882812 112.078125 248.894531 112.117188 C 248.910156 112.15625 248.933594 112.195312 248.949219 112.234375 C 248.992188 112.320312 249.042969 112.410156 249.113281 112.484375 C 249.199219 112.585938 249.296875 112.675781 249.402344 112.738281 C 253.890625 115.382812 259.648438 115.976562 264.628906 114.566406 C 265.988281 114.179688 265.777344 111.96875 264.285156 112.042969 C 260.761719 112.199219 257.511719 111.949219 254.183594 111.378906 C 254.382812 110.984375 254.585938 110.601562 254.777344 110.195312 C 254.765625 110.398438 254.75 110.601562 254.742188 110.804688 C 254.730469 111.148438 255.253906 111.304688 255.410156 110.984375 C 255.5 110.796875 255.582031 110.609375 255.671875 110.421875 C 256.4375 110.84375 257.480469 110.765625 258.003906 109.960938 C 258.398438 110.410156 259.253906 110.421875 259.742188 109.976562 C 259.785156 110.050781 259.824219 110.125 259.867188 110.199219 C 260.273438 110.8125 261.007812 111.167969 261.746094 110.964844 L 262.214844 110.828125 C 262.742188 110.679688 263.046875 110.347656 263.1875 109.960938 C 263.945312 110.652344 264.898438 111.160156 266.082031 111.394531 C 266.945312 111.566406 267.5625 111.15625 267.832031 110.582031 C 268.035156 110.613281 268.242188 110.648438 268.445312 110.6875 C 271.417969 111.257812 274.363281 111.96875 277.277344 112.804688 C 283.75 114.652344 290.113281 117.257812 295.980469 120.550781 C 300.148438 122.882812 304.65625 126.761719 310.128906 127.636719 C 308.277344 129.433594 311.902344 132.40625 314.421875 131.070312 C 322.433594 126.300781 327.042969 118.296875 330.691406 109.976562 C 334.765625 100.699219 338.375 91.777344 345.570312 84.367188 C 345.835938 84.089844 345.503906 83.683594 345.167969 83.847656 C 340.375 86.21875 336.984375 89.867188 334.222656 94.085938 C 334.175781 93.8125 333.835938 93.609375 333.558594 93.847656 C 328.828125 97.917969 325.0625 101.351562 322.703125 107.195312 C 321.296875 110.679688 319.007812 113.53125 316.230469 116.019531 C 313.925781 118.082031 310.902344 122.335938 307.601562 122.242188 C 301.738281 122.078125 294.980469 116.527344 289.675781 114.320312 C 284.851562 112.308594 279.84375 110.707031 274.773438 109.464844 C 272.050781 108.800781 268.675781 107.78125 265.46875 107.496094 C 262.785156 104.988281 263.738281 99.558594 263.816406 96.417969 C 263.820312 96.191406 263.824219 95.96875 263.828125 95.742188 C 265.007812 90.816406 266.089844 85.859375 267.3125 80.988281 C 267.371094 80.765625 267.429688 80.542969 267.488281 80.320312 C 267.554688 61.015625 277.453125 42.246094 275.5625 22.742188 C 275.269531 22.9375 274.941406 23.046875 274.601562 23.078125 C 273.507812 27.132812 254.820312 97.460938 253.710938 103.023438 C 242.996094 103.902344 232.132812 107.355469 222.820312 113.074219 C 222.75 112.882812 222.660156 112.695312 222.546875 112.523438 C 221.660156 113.125 220.6875 113.597656 219.59375 113.898438 C 217.605469 114.433594 216.089844 112.554688 216.527344 110.773438 C 212.984375 110.558594 209.21875 111.027344 205.894531 110.445312 C 202.398438 109.828125 200.433594 108.128906 197.566406 106.363281 C 196.597656 105.765625 195.726562 105.378906 194.8125 105.222656 C 195.003906 104.824219 195.015625 104.316406 194.839844 103.914062 C 193.800781 101.539062 192.949219 98.832031 191.230469 96.855469 C 190.867188 96.4375 190.101562 96.761719 190.132812 97.304688 C 190.132812 97.339844 190.140625 97.371094 190.140625 97.40625 C 190.097656 97.347656 190.070312 97.28125 190.019531 97.222656 C 189.722656 96.855469 189.101562 97.078125 188.984375 97.492188 C 188.578125 98.996094 189.175781 100.703125 189.707031 102.117188 C 189.851562 102.511719 190 102.925781 190.171875 103.347656 C 190.089844 103.367188 190.011719 103.382812 189.929688 103.402344 C 189.855469 102.570312 188.914062 101.964844 188.136719 102.6875 C 183.960938 106.554688 181.121094 112.464844 178.792969 117.589844 C 176.238281 123.230469 174.257812 129.113281 172.957031 135.160156 C 170.867188 144.882812 169.40625 158.3125 176.699219 166.335938 C 178.207031 167.984375 180.835938 165.457031 181.273438 167.894531 C 181.484375 169.09375 179.683594 171.457031 178.925781 172.308594 C 176.214844 175.347656 171.542969 176.070312 167.910156 177.582031 C 164.128906 179.160156 160.226562 180.773438 157.699219 184.109375 C 157.539062 184.324219 157.535156 184.519531 157.601562 184.683594 C 157.453125 184.558594 157.292969 184.449219 157.113281 184.363281 C 156.996094 183.675781 156.867188 183.007812 156.746094 182.371094 C 156.324219 180.207031 153.671875 182.410156 152.851562 183.054688 C 149.683594 185.554688 149.554688 184.429688 146.089844 182.902344 C 138.425781 179.523438 129.148438 177.214844 120.953125 175.601562 C 116.109375 174.644531 111.046875 174.09375 106.035156 174.144531 C 105.058594 174.046875 104.085938 173.976562 103.113281 173.914062 C 103.164062 173.875 103.222656 173.839844 103.277344 173.800781 C 103.421875 173.691406 103.550781 173.574219 103.679688 173.464844 C 104.257812 173.445312 104.859375 173.441406 105.449219 173.433594 C 104.46875 173.242188 103.511719 172.984375 102.597656 172.617188 C 102.128906 172.433594 101.785156 172.113281 101.566406 171.742188 C 101.152344 171.378906 100.886719 170.863281 100.769531 170.316406 C 107.355469 170.648438 113.859375 171.164062 120.398438 172.214844 C 125.382812 173.023438 132.773438 176.648438 137.703125 175.28125 C 130.011719 171.574219 124.789062 170.808594 119.246094 169.792969 C 113.433594 168.730469 107.492188 168.003906 101.578125 167.734375 C 102.679688 166.878906 104.042969 166.359375 105.425781 166.121094 C 105.875 166.042969 105.789062 165.417969 105.425781 165.292969 C 105.160156 165.199219 104.902344 165.15625 104.640625 165.105469 C 107.171875 164.824219 109.710938 164.597656 112.253906 164.558594 C 115.585938 164.503906 118.949219 165.054688 122.269531 164.882812 C 123.609375 164.808594 123.890625 162.960938 122.585938 162.542969 C 116.980469 160.730469 110.027344 161.34375 104.105469 162.585938 C 104.132812 162.488281 104.152344 162.398438 104.175781 162.304688 C 104.90625 161.878906 105.65625 161.484375 106.46875 161.167969 C 108.695312 160.3125 110.886719 160.207031 113.226562 160 C 114.527344 159.882812 115.074219 157.769531 113.566406 157.523438 C 110.953125 157.089844 107.703125 157.644531 104.96875 159.007812 C 106.355469 152.578125 106.996094 146.015625 107.414062 139.460938 C 107.664062 135.503906 107.816406 131.515625 108.550781 127.609375 C 109.058594 124.910156 109.71875 119.085938 111.585938 117.007812 C 112.007812 116.539062 111.351562 115.871094 110.882812 116.308594 C 110.414062 116.75 109.769531 116.898438 109.25 117.261719 C 110.71875 108.253906 113.316406 99.800781 117.851562 91.285156 C 118.050781 90.917969 117.546875 90.476562 117.246094 90.820312 C 115.949219 92.300781 114.8125 93.90625 113.792969 95.589844 C 115.582031 92.359375 117.4375 89.152344 119.34375 85.914062 C 119.542969 85.578125 119.292969 85.21875 118.984375 85.136719 C 119.632812 84.476562 120.277344 83.808594 120.910156 83.132812 C 121.410156 83.257812 121.90625 83.371094 122.40625 83.46875 C 123.445312 83.664062 124.507812 82.34375 123.542969 81.515625 C 123.3125 81.316406 123.058594 81.140625 122.816406 80.953125 C 123.007812 80.722656 123.199219 80.503906 123.382812 80.265625 C 123.464844 80.160156 123.507812 80.035156 123.539062 79.902344 C 123.945312 80.015625 124.351562 80.125 124.761719 80.222656 C 125.363281 80.363281 125.878906 79.605469 125.386719 79.148438 C 124.957031 78.75 124.496094 78.371094 124.027344 77.96875 C 124.5 78.132812 124.976562 78.304688 125.453125 78.449219 C 126.078125 78.636719 126.640625 77.761719 126.117188 77.316406 C 121.359375 73.265625 115.707031 70.351562 110.289062 67.304688 C 104.089844 63.824219 72.96875 46.480469 63.59375 41.3125 C 59.660156 43.796875 61.046875 46.417969 63.878906 49.515625 C 65.476562 51.261719 67.253906 52.824219 68.976562 54.449219 C 73.886719 56.433594 78.886719 58.238281 83.859375 60.113281 C 91.585938 63.03125 99.074219 66.367188 105.570312 71.535156 C 108.140625 73.574219 115.511719 78.140625 113.03125 82.316406 C 108.796875 89.457031 105.3125 97.039062 102.613281 104.890625 C 101.339844 108.585938 99.71875 112.660156 99.476562 116.539062 C 99.195312 120.976562 99.660156 125.410156 99.019531 129.839844 C 96.761719 135.496094 88.214844 131.824219 84.070312 130.113281 C 79.449219 128.210938 74.78125 126.445312 70.011719 124.949219 C 60.429688 121.9375 50.605469 120.101562 40.734375 118.378906 C 40.195312 118.28125 39.957031 119.074219 40.503906 119.207031 C 53.644531 122.292969 66.46875 127.097656 78.953125 132.179688 C 83.714844 134.121094 91.789062 137.75 97.5 136.390625 C 97.167969 137.164062 96.777344 137.90625 96.253906 138.5625 C 89.800781 138.332031 84.015625 136.703125 77.539062 134.464844 C 70.101562 131.886719 63.28125 127.875 55.777344 125.464844 C 48.070312 122.988281 40.003906 121.710938 32.054688 120.222656 C 23.542969 118.632812 15.359375 117.332031 6.757812 116.949219 C 5.351562 116.886719 5.078125 119.039062 6.425781 119.386719 C 24.019531 123.914062 43.40625 124.855469 60.234375 132.144531 C 67.757812 135.398438 74.898438 138.769531 82.796875 141.097656 C 86.714844 142.257812 91.425781 143.496094 95.609375 142.875 C 95.601562 142.984375 95.585938 143.097656 95.578125 143.207031 C 95.441406 144.816406 98.058594 145.164062 98.402344 143.59375 C 98.472656 143.285156 98.523438 142.96875 98.59375 142.660156 C 99.042969 142.878906 99.578125 142.882812 99.964844 142.625 C 100.015625 142.949219 100.0625 143.273438 100.125 143.59375 C 100.390625 144.929688 102.179688 144.445312 102.3125 143.300781 L 102.367188 142.84375 C 102.089844 149.367188 101.585938 155.859375 99.453125 162.085938 C 98.851562 163.851562 97.507812 165.871094 96.796875 167.902344 C 96.550781 168.023438 96.316406 168.242188 96.136719 168.574219 L 91.789062 176.703125 C 91.25 177.714844 91.898438 179.265625 93.195312 179.160156 C 100.964844 178.519531 108.429688 178.25 115.867188 179.148438 C 117.644531 179.449219 119.425781 179.730469 121.207031 180.015625 C 123.699219 180.523438 126.195312 181.171875 128.703125 182.011719 C 131.886719 183.082031 134.910156 184.414062 137.847656 185.933594 C 145.667969 192.523438 152.945312 200.109375 161.257812 206.054688 C 158.140625 207.96875 155.503906 210.976562 153.265625 214.410156 C 149.75 219.222656 147.585938 224.703125 145.949219 230.417969 C 144.058594 237.027344 142.300781 243.71875 140.929688 250.453125 C 140.078125 254.621094 140.039062 258.960938 138.964844 263.121094 C 137.394531 269.226562 135.023438 270.15625 129.351562 266.804688 C 125.65625 264.625 124.527344 261.34375 123.007812 257.609375 C 122.0625 255.292969 120.945312 251.886719 118.539062 250.816406 C 118.066406 250.605469 117.644531 250.859375 117.578125 251.367188 C 117.40625 252.664062 117.894531 253.703125 118.390625 254.839844 C 112.953125 253.171875 107.589844 251.1875 102.203125 249.578125 C 92.339844 246.636719 83.671875 240.789062 73.523438 238.488281 C 70.128906 237.71875 66.777344 238.003906 63.367188 238.496094 C 60.492188 238.914062 57.578125 238.835938 56.300781 235.546875 C 55.300781 232.972656 56.179688 229.152344 56.75 226.578125 C 56.980469 225.539062 55.652344 225 55.0625 225.863281 C 51.085938 231.71875 53.589844 240.949219 57.050781 246.5 C 57.125 246.78125 57.226562 247.058594 57.40625 247.332031 C 57.507812 247.492188 57.636719 247.605469 57.78125 247.699219 C 56.285156 249.496094 54.902344 251.359375 53.582031 253.003906 C 50.023438 257.429688 46.6875 262.035156 43.539062 266.757812 C 37.09375 276.464844 32.390625 287.519531 24.734375 296.335938 C 23.359375 297.917969 25.40625 299.894531 27.003906 298.605469 C 32.105469 294.480469 35.71875 289.066406 39.019531 283.429688 C 42.4375 278.742188 45.6875 273.929688 49.105469 269.507812 C 52.566406 265.03125 56.054688 260.578125 59.515625 256.101562 C 62.050781 252.820312 65.175781 247.253906 69.710938 246.597656 C 72.539062 246.191406 76.128906 247.542969 78.84375 248.25 C 82.347656 249.152344 85.78125 250.347656 88.996094 252.027344 C 95.296875 255.320312 102.570312 258.394531 108.777344 262.332031 C 109.746094 263.9375 109.75 265.835938 109.421875 268.371094 C 109.273438 269.511719 109.203125 270.492188 109.265625 271.476562 C 107.777344 276.75 106.738281 281.914062 106.042969 287.652344 C 105.007812 296.183594 103.613281 304.714844 102.191406 313.1875 C 99.476562 329.316406 97.128906 345.640625 90.765625 360.820312 C 90.214844 362.128906 92.515625 363.113281 93.078125 361.796875 C 99.738281 346.292969 102.511719 329.707031 105.433594 313.191406 C 106.597656 306.613281 108.019531 300.09375 109.074219 293.503906 C 109.566406 293.375 110.023438 293.03125 110.257812 292.441406 C 110.292969 292.355469 110.324219 292.265625 110.355469 292.179688 C 110.472656 292.125 110.578125 292.039062 110.675781 291.929688 C 113.265625 288.84375 114.09375 285.074219 114.011719 281.179688 C 114.566406 281.320312 115.15625 281.140625 115.492188 280.425781 C 115.535156 280.339844 115.574219 280.242188 115.617188 280.15625 C 116.128906 280.445312 116.796875 280.503906 117.484375 280.179688 C 122.746094 277.699219 128.078125 275.242188 133.570312 273.402344 C 134.621094 273.484375 135.617188 273.320312 136.542969 272.960938 C 138.589844 272.90625 140.640625 272.863281 142.667969 272.613281 C 143.664062 272.492188 144.082031 271.5625 143.855469 270.851562 C 146.296875 270.496094 148.777344 270.3125 151.304688 270.363281 L 151.371094 270.421875 C 152.304688 271.152344 153.550781 271.347656 154.472656 270.425781 L 154.765625 270.132812 C 155.269531 269.628906 155.492188 268.875 155.347656 268.175781 L 155.425781 268.140625 C 156.082031 267.789062 155.855469 266.867188 155.226562 266.648438 C 154.964844 266.554688 154.695312 266.488281 154.410156 266.433594 C 154.292969 266.351562 154.171875 266.277344 154.039062 266.222656 C 153.785156 264.542969 154.117188 261.566406 154.21875 260.351562 C 157.136719 248.777344 159.933594 237.824219 165.574219 227.074219 C 167.105469 224.144531 170.746094 221.285156 172.019531 217.351562 C 172.695312 216.339844 174.539062 214.882812 175.117188 213.816406 C 177.285156 214.695312 177.839844 214.507812 180.207031 215.058594 C 180.242188 215.066406 180.296875 215.074219 180.296875 215.074219 C 175.25 221.113281 172.007812 229.65625 169.335938 236.230469 C 164.730469 247.574219 161.308594 259.359375 156.324219 270.558594 C 155.929688 271.457031 156.359375 272.304688 157.007812 272.734375 C 157.273438 274.484375 158.355469 275.882812 159.832031 276.890625 C 161.308594 278.898438 163.617188 279.984375 166.28125 279.648438 C 166.175781 279.699219 166.089844 279.761719 165.988281 279.8125 C 165.433594 280.09375 165.78125 280.789062 166.269531 280.855469 C 169.484375 281.285156 172.152344 279.269531 174.386719 276.566406 C 171.5 280.066406 177.277344 288.132812 180.082031 290.1875 C 182.214844 291.753906 185.328125 292.28125 187.5 290.769531 C 187.339844 291.617188 188.757812 291.605469 189.488281 291.144531 C 193.117188 288.847656 196.160156 285.644531 198.265625 281.90625 C 197.023438 284.355469 195.742188 287.082031 196.402344 289.753906 C 197.019531 292.238281 199.269531 294.078125 201.722656 294.816406 C 202.042969 294.910156 202.371094 294.949219 202.695312 295.019531 C 202.898438 295.195312 203.167969 295.308594 203.519531 295.285156 C 203.628906 295.273438 203.730469 295.230469 203.84375 295.214844 C 205.660156 295.40625 207.53125 295.230469 209.34375 294.925781 C 210.3125 294.765625 211.339844 294.542969 212.039062 293.851562 C 212.679688 293.21875 212.832031 292.082031 212.253906 291.441406 C 213.042969 290.789062 213.8125 290.113281 214.550781 289.410156 C 214.707031 290.445312 215.28125 291.667969 215.457031 292.503906 C 215.859375 294.433594 216.152344 296.46875 217.117188 298.207031 C 217.265625 298.480469 217.445312 298.742188 217.640625 298.996094 C 217.667969 299.046875 217.683594 299.101562 217.710938 299.15625 C 217.84375 299.394531 218.019531 299.554688 218.21875 299.683594 C 220.34375 301.9375 223.992188 303.359375 226.851562 302.410156 C 227.066406 302.457031 227.285156 302.496094 227.527344 302.507812 C 228.808594 302.546875 230.15625 301.976562 231.449219 301.125 C 232.777344 299.800781 234.320312 298.730469 236.238281 298.015625 C 237.363281 297.589844 238.675781 298.265625 239.289062 299.285156 C 240.089844 298.335938 240.882812 297.378906 241.671875 296.414062 C 241.386719 297.449219 241.953125 298.511719 242.824219 299.058594 C 242.980469 299.375 243.140625 299.671875 243.296875 299.945312 C 243.96875 301.15625 245.285156 303.464844 246.921875 303.347656 C 249.292969 305.101562 251.960938 306.117188 254.699219 308.027344 C 261.25 312.605469 267.816406 317.492188 274.847656 321.316406 C 281.136719 324.734375 287.882812 327.226562 294.527344 329.847656 C 301.335938 332.535156 307.953125 336.675781 314.941406 338.726562 C 315.769531 338.96875 316.210938 337.964844 315.726562 337.386719 C 313.796875 335.066406 311.226562 333.304688 308.453125 331.820312 C 308.453125 331.820312 308.425781 331.773438 308.398438 331.75 C 300.199219 324.617188 291.394531 318.742188 281.210938 314.8125 C 275.523438 312.617188 270.082031 310.121094 264.835938 307.003906 C 262.566406 305.65625 260.339844 304.21875 258.207031 302.65625 C 256.589844 301.472656 254.941406 300.261719 253.484375 298.878906 C 247.539062 293.222656 255.019531 287.171875 258.191406 282.480469 C 262.976562 275.40625 266.921875 268.367188 270.097656 260.375 C 271.902344 255.824219 272.808594 251.375 273.855469 246.753906 C 275.757812 246.96875 277.765625 246.925781 279.496094 247.128906 C 284.148438 247.675781 288.757812 248.375 293.339844 249.386719 C 301.328125 251.140625 309.160156 253.476562 316.921875 256.046875 C 321.605469 257.601562 326.289062 259.277344 330.988281 260.933594 C 335.472656 262.511719 340.300781 262.789062 345.007812 262.859375 C 349.308594 262.933594 353.644531 264.117188 357.914062 263.796875 C 361.375 263.542969 364.777344 262.757812 368.015625 261.507812 C 369.582031 260.902344 369.578125 258.011719 367.578125 258.273438 "/>
</g>
<path style=" stroke:none;fill-rule:nonzero;fill:rgb(96.859741%,42.349243%,42.349243%);fill-opacity:1;" d="M 299.839844 183.929688 C 303.851562 181.199219 307.320312 175.386719 305.824219 170.441406 C 305.660156 169.894531 304.828125 169.855469 304.683594 170.441406 C 303.929688 173.410156 303.167969 175.933594 301.609375 178.09375 C 301.367188 177.976562 301.082031 177.90625 300.746094 177.921875 C 296.167969 178.125 292.523438 175.792969 288.453125 174.019531 C 284.765625 172.414062 281.023438 170.878906 277.210938 169.585938 C 272.371094 167.953125 265.199219 165.972656 261.234375 170.359375 C 260.855469 170.78125 261.113281 171.484375 261.710938 171.496094 C 265.527344 171.558594 268.832031 171.164062 272.597656 172.191406 C 276.070312 173.144531 279.445312 174.511719 282.765625 175.867188 C 286.960938 177.578125 292.644531 181.527344 297.769531 181.863281 C 297.125 183.09375 298.445312 184.882812 299.839844 183.929688 "/>
<path style=" stroke:none;fill-rule:nonzero;fill:rgb(96.859741%,42.349243%,42.349243%);fill-opacity:1;" d="M 308.328125 165.988281 C 310.222656 164.507812 312.0625 162.695312 313.234375 160.578125 C 314.324219 158.617188 314.484375 156.828125 314.347656 154.636719 C 314.332031 154.371094 314.097656 154.304688 313.917969 154.386719 C 313.160156 153.117188 310.90625 153.003906 310.253906 154.824219 C 308.945312 160.128906 299.171875 156.828125 296.382812 155.292969 C 293.90625 153.929688 291.933594 152.785156 289.101562 152.238281 C 283.296875 151.113281 277.632812 146.5625 271.460938 148.5 C 270.828125 148.699219 270.546875 149.734375 271.257812 150.058594 C 273.296875 150.976562 275.445312 151.320312 277.5625 152.027344 C 279.871094 152.792969 281.910156 154.050781 284.148438 154.949219 C 285.988281 155.691406 287.835938 155.660156 289.707031 156.183594 C 292.367188 156.921875 294.539062 158.890625 297.0625 159.96875 C 298.054688 160.394531 299.238281 160.753906 300.523438 161.015625 C 300.058594 161.675781 299.882812 162.582031 300.28125 163.320312 C 301.445312 165.515625 303.570312 166.128906 305.773438 165.667969 C 306.34375 166.34375 307.433594 166.691406 308.328125 165.988281 "/>
<path style=" stroke:none;fill-rule:nonzero;fill:rgb(96.859741%,42.349243%,42.349243%);fill-opacity:1;" d="M 152.292969 116.125 C 151.394531 116.132812 150.707031 117.011719 150.949219 117.882812 C 151.21875 118.824219 151.871094 119.574219 152.707031 120.148438 C 152.964844 120.53125 153.40625 120.820312 153.914062 120.816406 C 155.007812 121.316406 156.207031 121.605469 157.210938 121.707031 C 159.464844 121.933594 159.949219 118.476562 157.980469 117.738281 C 158.339844 117.199219 158.671875 116.628906 158.976562 115.992188 C 160.84375 112.042969 161.75 107.941406 164.078125 104.140625 C 164.875 102.839844 165.738281 101.527344 166.578125 100.191406 C 166.347656 100.660156 166.109375 101.125 165.890625 101.601562 C 165.492188 102.453125 166.507812 103.371094 167.246094 102.648438 C 167.855469 102.046875 168.410156 101.375 168.910156 100.648438 C 169.105469 100.632812 169.308594 100.5625 169.496094 100.390625 C 172.949219 97.15625 174.652344 91.410156 172.261719 87.09375 C 172.21875 87.011719 172.144531 86.980469 172.070312 86.972656 C 171.976562 86.308594 171.847656 85.664062 171.679688 85.042969 C 171.632812 84.871094 171.523438 84.761719 171.398438 84.710938 C 171.359375 84.476562 171.332031 84.25 171.277344 84.019531 C 171.128906 83.335938 170.140625 83.523438 170.113281 84.171875 C 169.730469 91.917969 165.441406 97.25 161.574219 103.589844 C 159.363281 107.210938 158.265625 113.648438 155.132812 116.925781 C 155.085938 116.90625 155.039062 116.894531 154.988281 116.882812 C 154.09375 116.546875 153.261719 116.121094 152.292969 116.125 "/>
<path style=" stroke:none;fill-rule:nonzero;fill:rgb(96.859741%,42.349243%,42.349243%);fill-opacity:1;" d="M 123.578125 115.582031 C 122.039062 116.007812 120.585938 117.847656 120.222656 119.371094 C 120.007812 120.28125 120.507812 121.25 121.4375 121.503906 C 122.421875 121.777344 123.230469 121.167969 123.578125 120.292969 C 123.824219 119.664062 123.941406 118.960938 124.15625 118.3125 C 124.371094 117.683594 124.578125 117.066406 124.660156 116.40625 C 124.734375 115.839844 124.054688 115.445312 123.578125 115.582031 "/>
<path style=" stroke:none;fill-rule:nonzero;fill:rgb(96.859741%,42.349243%,42.349243%);fill-opacity:1;" d="M 141.140625 118.789062 C 140.632812 119.128906 140.214844 119.550781 139.855469 120.042969 C 139.0625 121.125 138.351562 122.644531 139.300781 123.820312 C 139.746094 124.371094 140.554688 124.191406 141.027344 123.820312 C 141.753906 123.25 141.640625 122.097656 142.003906 121.300781 C 142.175781 120.9375 142.386719 120.585938 142.605469 120.253906 C 142.851562 119.875 142.933594 119.390625 143.175781 119.027344 C 143.335938 118.789062 143.128906 118.402344 142.832031 118.433594 C 142.175781 118.496094 141.738281 118.394531 141.140625 118.789062 "/>
<path style=" stroke:none;fill-rule:nonzero;fill:rgb(96.859741%,42.349243%,42.349243%);fill-opacity:1;" d="M 168.679688 123.324219 C 167.734375 123.949219 166.464844 124.976562 166.273438 126.15625 C 166.1875 126.691406 166.410156 127.242188 166.980469 127.402344 C 167.5 127.542969 168.09375 127.226562 168.226562 126.695312 C 168.347656 126.210938 168.332031 125.71875 168.410156 125.226562 C 168.492188 124.707031 168.773438 124.273438 169.105469 123.878906 C 169.34375 123.59375 169.039062 123.089844 168.679688 123.324219 "/>
<path style=" stroke:none;fill-rule:nonzero;fill:rgb(96.859741%,42.349243%,42.349243%);fill-opacity:1;" d="M 147.058594 218.957031 C 148.070312 217.597656 148.8125 216.089844 149.914062 214.789062 C 151.015625 213.492188 152.289062 212.414062 153.730469 211.523438 C 155.058594 210.703125 153.8125 208.574219 152.511719 209.433594 C 149.433594 211.460938 146.152344 214.75 145.726562 218.59375 C 145.640625 219.378906 146.691406 219.449219 147.058594 218.957031 "/>
<path style=" stroke:none;fill-rule:nonzero;fill:rgb(96.859741%,42.349243%,42.349243%);fill-opacity:1;" d="M 102.453125 305.199219 C 104.269531 297.359375 105.707031 289.417969 106.941406 281.464844 C 107.875 275.445312 109 268.808594 105.230469 263.511719 C 103.355469 260.878906 99.066406 263.21875 100.804688 266.09375 C 104.582031 272.363281 102.425781 280.519531 101.464844 287.339844 C 100.46875 294.457031 99.253906 301.542969 98.113281 308.640625 C 95.8125 322.890625 91.003906 336.421875 88.203125 350.523438 C 88.070312 351.179688 89.058594 351.714844 89.367188 351.015625 C 92.503906 343.871094 94.429688 336.144531 96.40625 328.609375 C 98.445312 320.828125 100.640625 313.042969 102.453125 305.199219 "/>
<path style=" stroke:none;fill-rule:nonzero;fill:rgb(15.689087%,17.248535%,20.388794%);fill-opacity:1;" d="M 248.160156 113.003906 C 248.21875 113.003906 248.222656 112.90625 248.160156 112.90625 C 248.097656 112.90625 248.097656 113.003906 248.160156 113.003906 "/>
<path style=" stroke:none;fill-rule:nonzero;fill:rgb(15.689087%,17.248535%,20.388794%);fill-opacity:1;" d="M 209.820312 117.996094 C 209.910156 117.996094 209.910156 117.859375 209.820312 117.859375 C 209.726562 117.859375 209.726562 117.996094 209.820312 117.996094 "/>
<path style=" stroke:none;fill-rule:nonzero;fill:rgb(15.689087%,17.248535%,20.388794%);fill-opacity:1;" d="M 100.933594 143.417969 C 101.132812 143.417969 101.132812 143.121094 100.933594 143.113281 C 100.742188 143.113281 100.742188 143.417969 100.933594 143.417969 "/>
<path style=" stroke:none;fill-rule:nonzero;fill:rgb(15.689087%,17.248535%,20.388794%);fill-opacity:1;" d="M 100.933594 143.316406 C 100.992188 143.316406 100.992188 143.222656 100.933594 143.222656 C 100.875 143.222656 100.875 143.316406 100.933594 143.316406 "/>
<g clip-path="url(#clip2)" clip-rule="nonzero">
<path style=" stroke:none;fill-rule:nonzero;fill:rgb(15.689087%,17.248535%,20.388794%);fill-opacity:1;" d="M 239.242188 290.164062 C 237.265625 292.832031 235.210938 295.574219 232.636719 297.609375 C 231.785156 298.28125 230.875 298.875 229.898438 299.363281 C 227.648438 300.484375 224.921875 300.890625 222.464844 300.3125 C 220.714844 299.902344 216.976562 298.21875 217.222656 296 C 219.875 295.410156 221.109375 292.804688 222.078125 290.519531 C 225.027344 283.5625 228.789062 276.945312 233.253906 270.84375 C 234.28125 269.4375 235.390625 267.9375 235.4375 266.195312 C 235.484375 264.457031 233.851562 262.601562 232.195312 263.144531 L 233.0625 266.191406 C 226.0625 271.265625 220.378906 277.949219 215.425781 285.035156 C 213.1875 288.238281 210.945312 291.671875 207.503906 293.535156 C 204.066406 295.394531 199.007812 294.960938 197.128906 291.53125 C 195.484375 288.539062 196.878906 284.851562 198.335938 281.765625 C 201.847656 274.339844 205.71875 267.082031 209.925781 260.023438 C 210.722656 258.683594 211.554688 257.292969 211.691406 255.738281 C 211.832031 254.1875 211.039062 252.433594 209.539062 252.007812 C 210.003906 254.601562 208.71875 257.15625 207.472656 259.480469 C 203.8125 266.316406 198.5625 273.15625 194.898438 279.984375 C 193.394531 282.804688 191.839844 285.675781 189.492188 287.847656 C 187.144531 290.019531 183.25 290.957031 179.921875 288.738281 C 173.414062 284.40625 174.136719 280.816406 176.121094 275.851562 C 180.792969 264.167969 190.757812 257.316406 191.636719 245.335938 C 191.738281 243.925781 190.898438 241.945312 189.589844 242.480469 C 191.082031 247.289062 188.109375 252.222656 185.277344 256.382812 L 175.851562 270.21875 C 174.351562 272.417969 172.8125 274.65625 170.679688 276.25 C 168.542969 277.839844 165.667969 278.683594 163.171875 277.761719 C 160.109375 276.625 158.460938 273.101562 158.523438 269.832031 C 158.585938 266.5625 159.996094 263.496094 161.445312 260.5625 C 164.683594 253.984375 168.234375 247.535156 170.863281 240.691406 C 172.933594 235.308594 174.429688 229.695312 176.839844 224.453125 C 179.253906 219.210938 182.738281 214.230469 187.75 211.375 C 188.753906 210.808594 189.757812 209.175781 188.65625 208.863281 C 188.472656 208.816406 188.285156 208.839844 188.09375 208.863281 L 181.46875 209.703125 C 190.140625 199.179688 206.117188 197.429688 215.488281 187.523438 C 216.578125 190.445312 219.183594 192.507812 221.820312 194.171875 C 226.292969 196.992188 231.179688 199.070312 236.042969 201.136719 C 248.171875 206.308594 260.835938 211.574219 274.003906 210.867188 C 272.617188 220.859375 271.222656 230.910156 268.15625 240.523438 C 262.304688 258.847656 250.675781 274.6875 239.242188 290.164062 Z M 238.113281 297.597656 C 238.082031 297.585938 238.046875 297.570312 238.011719 297.554688 C 238.070312 297.511719 238.117188 297.464844 238.171875 297.421875 C 238.152344 297.480469 238.136719 297.542969 238.113281 297.597656 Z M 212.3125 292.660156 C 212.339844 292.621094 212.367188 292.574219 212.398438 292.542969 C 212.683594 292.917969 212.578125 292.777344 212.609375 292.832031 C 212.519531 292.769531 212.40625 292.714844 212.3125 292.660156 Z M 173.671875 213.292969 C 173.242188 213.875 172.785156 214.507812 172.304688 215.175781 C 172.039062 214.292969 169.851562 213.128906 170.957031 211.804688 C 171.398438 211.277344 172.1875 211.417969 172.707031 211.730469 C 173.3125 212.105469 173.378906 212.714844 173.671875 213.292969 Z M 152.632812 268.40625 C 152.632812 268.40625 150.554688 268.816406 148.128906 269.722656 C 148.113281 269.683594 148.101562 269.628906 148.09375 269.585938 C 146.207031 246.3125 151.195312 222.667969 168.820312 206.054688 C 169.476562 206.480469 171.492188 207.933594 173.132812 209.148438 C 170.421875 208.304688 167.28125 210.476562 168.582031 214.039062 C 169.0625 215.339844 170.464844 215.308594 171.617188 216.136719 C 168.320312 220.792969 164.144531 227.203125 160.632812 234.203125 C 153.644531 248.148438 152.632812 268.40625 152.632812 268.40625 Z M 143.277344 269.316406 L 119.261719 278.738281 C 120.644531 274.03125 121.394531 269.132812 121.480469 264.21875 C 121.507812 262.859375 121.441406 261.394531 120.605469 260.324219 C 119.9375 259.464844 118.886719 259.015625 117.886719 258.601562 L 85.257812 245.03125 C 79.785156 242.753906 73.921875 239.730469 68.070312 238.59375 C 63.375 237.6875 60.132812 240.855469 57.832031 244.664062 C 57.46875 245.261719 53.484375 237.007812 53.339844 236.054688 C 52.636719 231.425781 54.941406 227.117188 58.988281 224.6875 C 60.578125 223.730469 62.597656 223.355469 64.429688 223.289062 C 74.578125 222.910156 84.398438 226.484375 94.34375 228.550781 C 95.074219 228.703125 96.0625 228.707031 96.304688 228.007812 C 96.550781 227.277344 95.699219 226.675781 94.988281 226.382812 C 86.527344 222.875 77.382812 221.039062 68.226562 221.019531 C 64.265625 221.011719 59.644531 221.046875 57.226562 217.914062 C 55.160156 215.246094 55.828125 211.117188 58.136719 208.65625 C 60.4375 206.191406 63.980469 205.195312 67.363281 205.230469 C 70.742188 205.253906 74.039062 206.1875 77.304688 207.03125 C 84.058594 208.78125 90.894531 210.214844 97.792969 211.25 C 99.3125 211.476562 100.914062 211.675781 102.34375 211.113281 C 103.773438 210.550781 104.917969 208.957031 104.433594 207.5 C 102.667969 208.714844 100.304688 208.390625 98.191406 208.023438 L 73.886719 203.757812 C 71.914062 203.414062 69.886719 203.046875 68.152344 202.039062 C 66.425781 201.027344 65.015625 199.214844 65.066406 197.210938 C 65.117188 195.289062 66.472656 193.621094 68.046875 192.503906 C 72.996094 188.980469 79.699219 189.738281 85.710938 190.648438 L 104.847656 193.539062 C 106.667969 193.8125 108.613281 194.070312 110.273438 193.277344 C 111.933594 192.484375 112.992188 190.191406 111.863281 188.742188 C 110.972656 190.363281 109.027344 191.164062 107.175781 191.222656 C 105.328125 191.277344 103.523438 190.714844 101.742188 190.210938 C 93.542969 187.910156 83.421875 186.542969 74.902344 186.695312 C 75.894531 182.152344 80.058594 181.578125 83.15625 180.585938 C 86.25 179.589844 90.089844 179.796875 93.339844 179.753906 C 105.8125 179.570312 118.613281 179.433594 130.332031 183.695312 C 143.53125 188.484375 154.191406 198.40625 166.757812 204.679688 C 149.742188 221.21875 140.84375 245.726562 143.277344 269.316406 Z M 106.867188 165.722656 C 116.316406 164.300781 127.152344 168.511719 135.675781 172.101562 C 142.644531 175.035156 154.515625 179.667969 157.289062 187.339844 C 158.445312 190.546875 156.851562 192.199219 154.316406 194.042969 C 133.535156 180.105469 119.402344 175.773438 92.667969 176.726562 C 96.390625 170.457031 98.417969 166.996094 106.867188 165.722656 Z M 104.652344 134.722656 C 105.199219 126.660156 105.890625 118.636719 108.410156 111.015625 C 110.667969 104.199219 114.320312 97.9375 117.949219 91.734375 C 119.542969 89.011719 121.164062 86.257812 123.460938 84.105469 C 125.601562 82.109375 128.234375 80.726562 130.871094 79.464844 C 132.390625 78.738281 134.535156 78.191406 135.480469 79.578125 C 136.320312 80.824219 135.378906 82.457031 134.503906 83.675781 C 130.589844 89.09375 127.429688 95.0625 125.136719 101.339844 C 124 104.476562 122.804688 108.007812 119.828125 109.507812 C 118.988281 109.929688 117.863281 110.476562 118.046875 111.394531 C 118.234375 112.3125 122.324219 110.222656 122.671875 109.9375 C 124.292969 108.609375 125.359375 107.132812 125.832031 105.359375 C 126.777344 101.84375 128.214844 98.40625 129.980469 95.308594 C 132.078125 91.632812 134.175781 89.023438 136.269531 85.351562 C 138.578125 81.316406 141.503906 76.832031 146.113281 76.191406 C 148.757812 75.824219 151.769531 77.199219 152.511719 79.757812 C 153.011719 81.488281 152.414062 83.332031 151.804688 85.027344 C 148.324219 94.695312 144.164062 104.113281 139.359375 113.191406 C 138.554688 112.707031 137.667969 112.207031 136.738281 112.347656 C 135.816406 112.484375 135.035156 113.636719 135.609375 114.382812 C 135.851562 114.695312 136.257812 114.839844 136.648438 114.917969 C 138.675781 115.316406 140.761719 114.25 142.140625 112.714844 C 143.519531 111.175781 144.324219 109.226562 145.101562 107.316406 L 154.855469 83.375 C 155.71875 81.257812 156.84375 78.894531 159.039062 78.25 C 160.011719 77.960938 161.0625 78.078125 162.058594 78.289062 C 166.175781 79.167969 169.960938 81.875 171.765625 85.679688 C 173.566406 89.492188 173.175781 94.34375 170.46875 97.574219 C 170.691406 95.488281 170.164062 93.324219 169.003906 91.574219 C 165.613281 100.375 161.429688 108.875 156.53125 116.933594 C 156.367188 115.546875 153.835938 115.878906 153.703125 117.273438 C 153.5625 118.664062 155.183594 119.71875 156.570312 119.527344 C 157.957031 119.332031 159.074219 118.3125 160.023438 117.28125 C 165.425781 111.425781 168.554688 103.878906 172.757812 97.105469 C 173.996094 95.105469 175.441406 93.078125 177.558594 92.058594 C 181.097656 90.363281 185.511719 92.0625 188.125 94.992188 C 190.730469 97.917969 191.953125 101.792969 193.097656 105.539062 C 191.175781 106.269531 189.351562 107.257812 187.699219 108.472656 C 188.234375 107.089844 188.1875 105.488281 187.5625 104.140625 C 183.75 111.757812 180.578125 119.691406 178.097656 127.835938 C 175.976562 134.808594 174.351562 141.972656 174.035156 149.253906 C 173.890625 152.566406 174.054688 156.027344 175.601562 158.964844 C 178.015625 163.550781 183.183594 165.855469 187.984375 167.832031 C 181.921875 177.277344 170.382812 181.347656 159.691406 184.792969 C 153.046875 175.542969 142.257812 170.078125 131.296875 166.996094 C 121.214844 164.15625 110.660156 163.042969 100.214844 163.714844 C 103.527344 154.480469 103.984375 144.582031 104.652344 134.722656 Z M 100.957031 143.367188 C 101.136719 143.242188 101.335938 143.148438 101.503906 143.007812 C 101.5 143.0625 101.5 143.109375 101.492188 143.164062 C 101.351562 143.234375 101.222656 143.308594 101.121094 143.402344 C 101.066406 143.386719 101.011719 143.375 100.957031 143.367188 Z M 215.472656 111.089844 C 215.363281 111.171875 215.257812 111.25 215.15625 111.332031 C 213.355469 111.085938 196.351562 126.917969 192.75 159.496094 C 192.226562 164.253906 192.753906 165.785156 187.335938 164.210938 C 184.886719 163.5 181.300781 161.449219 179.417969 159.746094 C 178.160156 158.617188 177.816406 156.875 177.535156 155.148438 C 176.847656 150.941406 177.269531 146.523438 177.796875 142.328125 C 178.378906 137.714844 179.277344 133.140625 180.367188 128.625 C 181.03125 125.875 181.464844 121.96875 182.964844 119.515625 C 185.449219 115.449219 186.628906 108.945312 193.382812 106.90625 C 194.085938 108.085938 207.277344 112.984375 215.472656 111.089844 Z M 168.804688 202.964844 C 168.375 202.820312 167.84375 203.019531 167.542969 203.367188 C 164.078125 200.859375 160.632812 198.378906 157.171875 195.984375 C 160.265625 193.699219 161.261719 191.144531 160.898438 188.542969 C 169.476562 183.21875 189.386719 178.632812 189.804688 168.632812 C 194.332031 170.691406 196.054688 168.546875 196.699219 167.429688 C 203.953125 172.265625 210.300781 177.128906 217.214844 181.019531 C 216.597656 181.238281 216.554688 181.875 215.707031 183.855469 C 192.027344 202.417969 182.59375 199.875 179.789062 209.433594 C 179.503906 209.195312 172.410156 204.179688 168.804688 202.964844 Z M 220.214844 114.699219 C 224.289062 113.074219 228.359375 111.453125 232.476562 109.949219 C 239.460938 107.398438 246.566406 105.203125 253.773438 103.371094 C 253.773438 103.410156 253.777344 103.453125 253.777344 103.492188 C 253.933594 106.023438 254.460938 108.53125 255.332031 110.914062 L 251.109375 110.730469 C 257.824219 114.558594 266.230469 112.28125 273.910156 113.167969 C 284.347656 114.371094 293.050781 121.386719 302.691406 125.566406 C 305.695312 126.863281 309 128.042969 310.882812 130.71875 C 313.597656 134.570312 312.273438 139.847656 310.757812 144.308594 L 291.535156 135.707031 C 286.816406 133.59375 282.09375 131.480469 277.617188 128.902344 C 276.730469 129.378906 276.6875 130.722656 277.269531 131.539062 C 277.847656 132.363281 278.828125 132.78125 279.757812 133.164062 L 297.554688 140.5 C 301.140625 141.972656 304.777344 143.484375 307.839844 145.851562 C 310.902344 148.226562 313.382812 151.621094 313.796875 155.46875 C 314.210938 159.320312 312.125 163.546875 308.464844 164.828125 C 308.070312 164.96875 307.65625 165.070312 307.238281 165.035156 C 306.5625 164.988281 305.976562 164.585938 305.417969 164.210938 C 296.230469 157.949219 285.957031 153.300781 275.1875 150.53125 C 274.179688 150.277344 273.082031 149.976562 272.484375 149.128906 C 272.316406 148.898438 272.191406 148.625 271.96875 148.453125 C 271.171875 147.816406 270.011719 149.078125 270.335938 150.042969 C 270.664062 151.003906 271.707031 151.5 272.652344 151.878906 C 280.753906 155.132812 289.070312 158.039062 296.457031 162.691406 C 300.066406 164.964844 303.609375 167.902344 304.820312 171.992188 C 306.023438 176.078125 303.789062 181.363281 299.5625 181.953125 C 297.964844 182.179688 296.351562 181.726562 294.824219 181.191406 C 289.570312 179.339844 284.75 176.441406 279.640625 174.214844 C 274.53125 171.988281 268.886719 170.417969 263.402344 171.4375 C 263.578125 169.957031 262.855469 167.738281 261.488281 168.320312 C 261.097656 168.480469 260.835938 168.859375 260.707031 169.261719 C 260.050781 171.335938 262.347656 173.054688 264.300781 174.019531 L 280.390625 182.007812 C 282.644531 183.128906 284.9375 184.273438 286.730469 186.039062 C 288.519531 187.804688 289.753906 190.328125 289.347656 192.808594 C 288.886719 195.636719 286.355469 197.808594 283.585938 198.527344 C 280.804688 199.253906 277.855469 198.75 275.125 197.878906 C 269.183594 195.976562 263.933594 192.363281 258.140625 190.03125 C 249.367188 186.507812 239.695312 186.03125 230.519531 183.71875 C 218.519531 180.695312 207.195312 174.304688 199.328125 164.757812 C 198.011719 163.164062 196.773438 161.433594 196.28125 159.429688 C 195.761719 157.292969 196.144531 155.046875 196.59375 152.894531 C 198.050781 145.976562 200.246094 139.214844 203.128906 132.761719 C 205.558594 127.335938 208.003906 121.589844 213.105469 118.148438 C 215.292969 116.667969 217.765625 115.683594 220.214844 114.699219 Z M 305.804688 168.871094 C 305.742188 168.765625 305.671875 168.667969 305.597656 168.566406 C 305.695312 168.605469 305.792969 168.664062 305.886719 168.6875 C 305.859375 168.746094 305.824219 168.804688 305.804688 168.871094 Z M 295.136719 184.492188 C 295.113281 184.472656 295.082031 184.457031 295.054688 184.4375 C 295.09375 184.449219 295.125 184.453125 295.164062 184.464844 Z M 291.835938 185.074219 L 291.835938 185.003906 C 291.898438 185.046875 291.960938 185.085938 292.023438 185.128906 C 292.101562 185.273438 292.15625 185.425781 292.203125 185.570312 C 292.078125 185.40625 291.960938 185.230469 291.835938 185.074219 Z M 280.214844 201.449219 C 280.238281 201.386719 280.230469 201.332031 280.246094 201.269531 C 280.371094 201.273438 280.492188 201.277344 280.613281 201.285156 C 280.480469 201.347656 280.347656 201.394531 280.214844 201.449219 Z M 272.507812 202.191406 C 271.636719 201.5625 271.84375 200.382812 272.351562 199.539062 C 273.671875 199.996094 275.039062 200.394531 276.417969 200.707031 C 275.234375 201.527344 274.097656 203.351562 272.507812 202.191406 Z M 275.402344 205.746094 C 270.484375 211.960938 251.910156 204.488281 244.890625 201.894531 C 241.796875 200.75 223.375 194.179688 218.070312 188.480469 C 218.371094 188.300781 218.238281 188.34375 218.492188 188.097656 C 220.789062 185.816406 226.503906 187.496094 229.203125 188.007812 C 234.019531 188.929688 238.921875 189.449219 243.699219 190.558594 C 252.617188 192.648438 261.492188 195.328125 269.832031 199.121094 C 268.222656 202.839844 271.617188 206.484375 275.671875 204.664062 C 275.578125 205.027344 275.488281 205.382812 275.402344 205.746094 Z M 368.839844 258.09375 C 340.320312 254.722656 329.664062 245.402344 289.96875 239.421875 C 283.761719 238.488281 278.914062 234.296875 273.101562 233.582031 C 275.34375 222.929688 276.84375 210.214844 279 204.589844 C 281.835938 204.429688 284.242188 202.605469 286.3125 200.417969 C 286.6875 200.246094 286.921875 199.957031 287.039062 199.628906 C 289.476562 196.882812 291.78125 194.328125 291.9375 191.425781 C 296.574219 189.597656 306.21875 183.9375 306.636719 179.558594 C 307.761719 176.820312 307.945312 173.273438 306.519531 170.175781 C 308.039062 170.402344 311.261719 166.820312 312.035156 165.3125 C 314.128906 163.308594 315.5 160.207031 316.007812 157.582031 C 316.710938 153.972656 315.429688 151.15625 313.289062 148.792969 C 313.402344 148.761719 313.535156 148.761719 313.621094 148.695312 C 319.980469 144.027344 320.007812 138.769531 317.179688 134.15625 C 317.496094 134.246094 317.855469 134.195312 318.171875 133.851562 C 331.25 119.742188 335.921875 99.480469 347.257812 83.949219 C 347.71875 83.320312 346.75 82.675781 346.21875 83.152344 C 327.964844 99.710938 328.707031 119.59375 314.699219 130.421875 C 314.585938 130.511719 314.542969 130.621094 314.457031 130.71875 C 311.976562 128.183594 308.777344 126.007812 305.589844 124.480469 C 287.820312 115.941406 283.246094 111.214844 271.089844 110.910156 C 269.757812 109.804688 258.433594 112.925781 258.367188 98.179688 C 260.660156 85.039062 267.066406 64.324219 267.691406 61.261719 C 270.402344 47.925781 272.179688 35.105469 276.703125 22.175781 C 276.761719 22.011719 276.507812 21.910156 276.417969 22.058594 C 267.695312 36.722656 267.542969 54.957031 262.644531 71.03125 C 260.210938 79.027344 254.523438 90.9375 253.945312 101.289062 C 253.789062 101.25 253.625 101.238281 253.441406 101.269531 C 234.964844 104.179688 223.570312 111.933594 218.96875 113.03125 C 218.96875 111.484375 219.808594 109.96875 216.863281 109.867188 C 213.917969 109.765625 208.1875 109.933594 196.453125 105.535156 C 196.453125 105.316406 196.414062 105.09375 196.273438 104.863281 C 192.855469 99.164062 186.960938 82.566406 175.359375 91.136719 C 175.003906 78.941406 159.875 72.105469 155.199219 78.730469 C 154.898438 76.769531 153.609375 75.257812 150.527344 74.6875 C 145.773438 73.8125 141.796875 75.304688 138.632812 78.457031 C 138.121094 77.398438 132.859375 75.394531 128.046875 77.355469 C 127.757812 74.96875 119.765625 73.648438 113.984375 69.527344 C 109.378906 66.25 105.972656 62.816406 100.992188 59.964844 C 89.117188 53.171875 76.742188 46.160156 63.847656 41.515625 C 63.710938 41.460938 63.578125 41.675781 63.699219 41.765625 C 74.59375 50.386719 87.351562 55.972656 98.878906 63.578125 C 103.195312 66.429688 106.515625 71.625 110.769531 74.1875 C 114.957031 76.71875 120.140625 77.289062 124.636719 79.3125 C 119.972656 82.847656 116.332031 89.023438 113.53125 94.230469 C 110.648438 93.871094 105.101562 104.304688 108.816406 103.5625 C 104.804688 112.90625 103.445312 122.464844 102.507812 132.15625 C 101.917969 134.078125 102.105469 136.148438 101.421875 138.089844 C 101.1875 138.769531 100.886719 139.359375 100.546875 139.914062 C 96.496094 143.03125 87.15625 141.457031 77.957031 138.929688 C 65.3125 134.339844 43.953125 122.378906 7.472656 118.601562 C 6.585938 118.511719 6.5625 119.773438 7.273438 120.046875 C 16.023438 123.421875 25.085938 125.640625 34.121094 127.957031 C 48.289062 133.113281 54.71875 133.816406 60.59375 136.359375 C 67.859375 139.507812 90.585938 149.59375 101.054688 147.277344 C 99.570312 160.144531 97.785156 163.714844 97.875 164.617188 C 93.984375 166.449219 93.136719 170.453125 90.863281 176.808594 C 80.589844 177.371094 70.601562 179.734375 72.175781 187.210938 C 63.984375 188.464844 61.863281 195.367188 62.871094 203.261719 C 53.28125 205.460938 52.234375 216.523438 56.453125 222.304688 C 51.257812 224.675781 49.371094 233.03125 51.582031 239.425781 C 53.226562 244.191406 53.964844 243.835938 55.597656 247.175781 C 44.527344 260.832031 19.527344 303.125 23.460938 298.214844 C 29.902344 290.179688 35.332031 281.296875 41.027344 272.734375 C 46.71875 264.167969 52.308594 254.882812 59.644531 247.417969 C 61.027344 246.007812 63.3125 242.671875 65.273438 242.074219 C 73.214844 239.664062 88.832031 249.6875 94.625 252.054688 C 106.933594 257.09375 118.488281 254.394531 113.386719 278.539062 C 98.09375 327.585938 103.304688 336.960938 92.035156 361.863281 C 91.851562 362.269531 92.359375 362.554688 92.621094 362.207031 C 99.03125 353.859375 101.085938 346.320312 102.402344 336.15625 C 104.707031 318.308594 114.609375 294.003906 118.289062 281.648438 C 126.714844 280.367188 135.195312 274.855469 143.402344 272.226562 C 142.699219 272.453125 146.335938 273.945312 147.046875 273.980469 C 149.734375 274.097656 152.628906 273.472656 155.300781 273.21875 C 155.402344 273.207031 155.476562 273.160156 155.570312 273.136719 C 156.085938 275.835938 157.671875 278.261719 160.984375 280.019531 C 165.03125 282.175781 168.039062 281.667969 170.742188 279.53125 C 175.285156 293.605469 187.929688 295.695312 193.6875 289.066406 C 194.902344 294.832031 204.695312 299.957031 210.519531 294.625 C 214.136719 296.578125 216.375 301.265625 222.871094 302.191406 C 224.996094 302.496094 227.132812 303.003906 229.296875 302.933594 C 231.867188 302.84375 232.476562 301.925781 234.339844 300.5625 C 234.425781 300.5 234.511719 300.453125 234.601562 300.382812 C 234.828125 300.199219 235.050781 299.992188 235.277344 299.804688 C 248.921875 306.941406 260.820312 316.851562 274.875 323.304688 C 287.71875 329.207031 301.46875 331.753906 313.703125 339.078125 C 314.25 339.40625 314.839844 338.648438 314.386719 338.199219 C 302.96875 326.953125 287.648438 327.574219 269.933594 316.769531 C 265.488281 313.375 260.617188 310.441406 256.019531 307.328125 C 253.136719 305.375 250.015625 303.59375 247.394531 301.292969 C 243.886719 298.21875 243.816406 298.199219 245.386719 292.445312 C 247.214844 290.027344 269.042969 266.703125 273.628906 241.808594 C 274.046875 241.027344 274.46875 240.242188 274.875 239.457031 C 279.847656 243.492188 302.867188 244.542969 317.835938 248.671875 C 334.59375 253.292969 351.28125 259.234375 368.839844 259.476562 C 369.753906 259.492188 369.699219 258.195312 368.839844 258.09375 "/>
</g>
<path style=" stroke:none;fill-rule:nonzero;fill:rgb(15.689087%,17.248535%,20.388794%);fill-opacity:1;" d="M 182.113281 153.828125 C 181.855469 152.421875 182.402344 151.03125 184.160156 151.777344 C 186.554688 152.808594 184.566406 155.640625 182.113281 153.828125 Z M 185.496094 149.769531 C 183.335938 148.644531 180.492188 149.414062 179.800781 151.910156 C 178.644531 156.074219 183.632812 158.617188 186.617188 155.691406 C 188.515625 153.835938 187.71875 150.933594 185.496094 149.769531 "/>
<path style=" stroke:none;fill-rule:nonzero;fill:rgb(15.689087%,17.248535%,20.388794%);fill-opacity:1;" d="M 144.671875 82.121094 C 146.066406 82.605469 147.53125 83.050781 149.007812 82.800781 C 149.816406 82.660156 150.671875 80.511719 144.820312 81.019531 C 144.191406 81.078125 144.058594 81.910156 144.671875 82.121094 "/>
<path style=" stroke:none;fill-rule:nonzero;fill:rgb(15.689087%,17.248535%,20.388794%);fill-opacity:1;" d="M 128.734375 82.601562 C 129.277344 82.6875 129.800781 82.78125 130.351562 82.8125 C 131.195312 82.867188 131.195312 81.460938 130.351562 81.507812 C 129.800781 81.542969 129.28125 81.632812 128.734375 81.722656 C 128.300781 81.792969 128.300781 82.527344 128.734375 82.601562 "/>
<path style=" stroke:none;fill-rule:nonzero;fill:rgb(15.689087%,17.248535%,20.388794%);fill-opacity:1;" d="M 161.148438 85.304688 C 161.804688 84.921875 162.402344 85.257812 163.027344 85.488281 C 163.730469 85.75 164.339844 84.851562 163.980469 84.253906 C 163.132812 82.859375 161.261719 83.027344 160.316406 84.222656 C 159.863281 84.800781 160.421875 85.734375 161.148438 85.304688 "/>
<path style=" stroke:none;fill-rule:nonzero;fill:rgb(15.689087%,17.248535%,20.388794%);fill-opacity:1;" d="M 180.53125 94.613281 C 181.023438 94.332031 181.4375 94.5 181.871094 94.726562 C 182.816406 95.214844 183.507812 93.945312 182.683594 93.335938 C 181.710938 92.609375 180.539062 93.039062 179.90625 93.988281 C 179.644531 94.378906 180.148438 94.824219 180.53125 94.613281 "/>
<path style=" stroke:none;fill-rule:nonzero;fill:rgb(15.689087%,17.248535%,20.388794%);fill-opacity:1;" d="M 301.742188 177.785156 C 302.410156 176.78125 302.8125 175.347656 302.632812 174.144531 C 302.496094 173.285156 300.847656 175.125 300.714844 177.511719 C 300.6875 178.085938 301.457031 178.210938 301.742188 177.785156 "/>
<path style=" stroke:none;fill-rule:nonzero;fill:rgb(15.689087%,17.248535%,20.388794%);fill-opacity:1;" d="M 311.570312 154.855469 C 311.511719 154.550781 311.0625 154.582031 310.984375 154.855469 C 310.558594 156.34375 309.285156 157.234375 308.609375 158.535156 C 307.566406 160.542969 312.558594 159.984375 311.570312 154.855469 "/>
<path style=" stroke:none;fill-rule:nonzero;fill:rgb(15.689087%,17.248535%,20.388794%);fill-opacity:1;" d="M 287.609375 192.492188 C 287.632812 192.085938 287.105469 191.765625 286.761719 192.003906 C 286.082031 192.5 285.476562 193.175781 285.132812 193.949219 C 284.429688 195.53125 287.347656 196.640625 287.609375 192.492188 "/>
<path style=" stroke:none;fill-rule:nonzero;fill:rgb(15.689087%,17.248535%,20.388794%);fill-opacity:1;" d="M 58.308594 210.863281 C 57.613281 212.726562 58.308594 213.246094 58.566406 213.996094 C 58.6875 214.332031 59.183594 214.199219 59.109375 213.84375 C 58.972656 213.207031 59.351562 211.988281 59.605469 211.40625 C 59.910156 210.726562 60.488281 210.28125 60.855469 209.648438 C 61.5 208.527344 59.296875 208.191406 58.308594 210.863281 "/>
<path style=" stroke:none;fill-rule:nonzero;fill:rgb(15.689087%,17.248535%,20.388794%);fill-opacity:1;" d="M 69.625 193.324219 C 68.746094 194.335938 68.195312 195.929688 68.21875 197.261719 C 68.253906 198.828125 69.9375 195.488281 70.386719 193.769531 C 70.496094 193.351562 69.933594 192.96875 69.625 193.324219 "/>
<path style=" stroke:none;fill-rule:nonzero;fill:rgb(15.689087%,17.248535%,20.388794%);fill-opacity:1;" d="M 79.152344 184.449219 C 78.90625 184.894531 79.402344 185.410156 79.859375 185.148438 C 83.117188 183.277344 80.949219 181.242188 79.152344 184.449219 "/>
<path style=" stroke:none;fill-rule:nonzero;fill:rgb(15.689087%,17.248535%,20.388794%);fill-opacity:1;" d="M 108.300781 171.71875 C 108.589844 174.929688 104.5625 173.246094 103.789062 171.484375 C 102.753906 169.117188 108.054688 168.976562 108.300781 171.71875 Z M 102.492188 175.019531 C 103.328125 175.601562 104.328125 176.035156 105.289062 176.253906 C 109.238281 177.15625 112.1875 173.089844 109.804688 169.570312 C 108.039062 166.964844 103.527344 167.355469 101.535156 169.488281 C 99.535156 171.636719 100.609375 173.710938 102.492188 175.019531 "/>
<path style=" stroke:none;fill-rule:nonzero;fill:rgb(15.689087%,17.248535%,20.388794%);fill-opacity:1;" d="M 230.261719 296.980469 C 229.480469 296.667969 228.859375 296.496094 228.210938 295.917969 C 227.671875 295.433594 226.992188 296.03125 227.253906 296.652344 C 227.765625 297.855469 228.957031 298.601562 230.261719 298.398438 C 231.0625 298.273438 230.84375 297.210938 230.261719 296.980469 "/>
<path style=" stroke:none;fill-rule:nonzero;fill:rgb(15.689087%,17.248535%,20.388794%);fill-opacity:1;" d="M 202.269531 289.550781 C 201.726562 289.316406 201.300781 288.898438 200.777344 288.628906 C 200.328125 288.410156 199.78125 288.679688 199.773438 289.207031 C 199.746094 290.8125 201.953125 292.457031 203.40625 291.464844 C 203.8125 291.1875 203.964844 290.589844 203.570312 290.222656 C 203.148438 289.824219 202.796875 289.777344 202.269531 289.550781 "/>
<path style=" stroke:none;fill-rule:nonzero;fill:rgb(15.689087%,17.248535%,20.388794%);fill-opacity:1;" d="M 182.195312 284.179688 C 181.410156 283.859375 180.816406 283.265625 180.03125 282.984375 C 179.929688 282.953125 179.78125 283.007812 179.738281 283.105469 C 178.761719 285.324219 183.355469 286.121094 184.703125 286.003906 C 185.117188 285.964844 185.398438 285.351562 184.941406 285.136719 C 184.070312 284.714844 183.097656 284.550781 182.195312 284.179688 "/>
</g>
</svg>
